<?xml version="1.0" standalone="no"?>
<!DOCTYPE svg PUBLIC "-//W3C//DTD SVG 20010904//EN"
 "http://www.w3.org/TR/2001/REC-SVG-20010904/DTD/svg10.dtd">
<svg version="1.0" xmlns="http://www.w3.org/2000/svg"
 width="500.000000pt" height="393.000000pt" viewBox="0 0 500.000000 393.000000"
 preserveAspectRatio="xMidYMid meet">

<g transform="translate(0.000000,393.000000) scale(0.100000,-0.100000)"
fill="#000000" stroke="none">
<path d="M2430 3419 c-363 -92 -997 -205 -1315 -233 -177 -16 -201 -20 -217
-34 -17 -14 -18 -73 -18 -969 l0 -953 -116 0 c-126 0 -188 -12 -304 -59 -116
-47 -179 -90 -275 -186 -71 -71 -99 -107 -130 -170 -36 -73 -40 -88 -43 -177
-4 -88 -2 -101 22 -155 141 -309 631 -317 966 -16 69 62 143 177 174 270 l26
78 0 863 0 862 138 0 c163 0 404 16 470 30 26 6 70 15 97 21 217 47 372 125
500 254 127 128 180 250 191 446 l7 105 -28 22 c-33 26 -47 26 -145 1z"/>
<path d="M1630 2130 l0 -60 103 0 104 0 -102 -297 c-56 -164 -105 -308 -109
-320 l-7 -23 190 0 191 0 0 60 0 60 -95 0 -94 0 108 320 109 320 -199 0 -199
0 0 -60z"/>
<path d="M2049 2168 c5 -13 43 -112 85 -222 l76 -198 0 -159 0 -159 80 0 80 0
0 158 0 157 56 145 c31 80 69 180 85 223 l28 77 -79 0 -79 0 -32 -102 c-17
-56 -36 -131 -43 -167 -12 -63 -13 -64 -19 -31 -4 19 -23 95 -44 168 l-37 132
-83 0 c-82 0 -82 0 -74 -22z"/>
<path d="M2590 1810 l0 -380 165 0 165 0 0 60 0 60 -85 0 -85 0 0 110 0 110
85 0 85 0 0 60 0 60 -85 0 -85 0 0 90 0 90 85 0 85 0 0 60 0 60 -165 0 -165 0
0 -380z"/>
<path d="M3030 1810 l0 -380 72 0 71 0 -6 193 c-4 105 -9 228 -11 272 -3 44
-3 71 0 60 3 -11 26 -112 53 -225 l47 -205 59 0 60 0 27 115 c16 63 42 178 58
255 17 77 28 122 25 100 -3 -22 -8 -158 -11 -302 l-7 -263 72 0 71 0 0 380 0
381 -87 -3 -87 -3 -52 -210 c-29 -115 -56 -232 -60 -260 l-7 -50 -23 115 c-13
63 -39 180 -57 260 l-32 145 -88 3 -87 3 0 -381z m117 183 c-3 -10 -5 -4 -5
12 0 17 2 24 5 18 2 -7 2 -21 0 -30z"/>
<path d="M3730 1810 l0 -380 75 0 75 0 0 380 0 380 -75 0 -75 0 0 -380z"/>
<path d="M4010 1810 l0 -380 75 0 75 0 2 182 3 181 64 -181 65 -182 79 0 c59
0 78 3 74 13 -109 276 -131 341 -117 345 8 3 31 21 51 41 106 105 61 312 -76
350 -22 6 -97 11 -167 11 l-128 0 0 -380z m240 241 c73 -52 34 -181 -55 -181
l-35 0 0 106 0 106 33 -7 c17 -4 43 -15 57 -24z"/>
<path d="M4656 2173 c-7 -24 -166 -729 -166 -737 0 -3 34 -6 74 -6 l75 0 12
60 12 60 73 0 c80 0 77 3 89 -77 l7 -43 80 0 c72 0 80 2 76 18 -2 9 -40 180
-84 379 l-79 363 -82 0 c-69 0 -82 -3 -87 -17z m109 -328 c9 -71 19 -140 22
-152 5 -22 2 -23 -46 -23 -35 0 -51 4 -51 13 0 7 9 75 20 152 11 77 20 163 21
190 l1 50 8 -50 c5 -27 16 -108 25 -180z"/>
<path d="M1720 1298 c-58 -20 -106 -78 -132 -160 -20 -63 -23 -94 -23 -228 0
-133 3 -165 23 -227 27 -87 66 -135 128 -159 81 -31 194 0 244 68 23 31 50
100 50 127 0 15 -45 36 -126 59 -7 2 -14 -16 -18 -42 -12 -81 -69 -122 -109
-78 -26 29 -37 99 -37 252 0 208 19 270 81 270 32 0 56 -28 65 -77 3 -18 9
-33 13 -33 4 0 35 9 70 21 61 21 62 22 56 53 -11 50 -52 113 -91 136 -42 26
-141 35 -194 18z"/>
<path d="M2233 1299 c-47 -14 -98 -69 -122 -134 -47 -126 -47 -384 0 -510 46
-124 163 -177 274 -126 50 23 78 53 104 112 68 153 47 501 -36 600 -50 59
-137 82 -220 58z m100 -127 c29 -32 39 -117 35 -298 -3 -157 -5 -176 -24 -201
-31 -41 -64 -37 -87 10 -38 78 -33 421 7 483 19 28 47 31 69 6z"/>
<path d="M3310 1294 c-89 -38 -133 -120 -151 -282 -17 -148 2 -305 47 -394 76
-150 299 -140 369 16 41 90 39 97 -33 123 -35 13 -68 21 -73 17 -5 -3 -9 -16
-9 -30 0 -29 -22 -75 -44 -93 -26 -22 -65 -5 -84 37 -14 30 -17 71 -17 222 0
165 2 189 20 225 35 71 108 55 121 -27 4 -21 12 -38 18 -38 7 0 40 9 73 21 66
22 64 18 40 84 -39 111 -168 166 -277 119z"/>
<path d="M2630 910 l0 -380 70 0 70 0 0 138 c0 75 -5 182 -10 237 -5 55 -12
125 -15 155 l-4 55 14 -60 c7 -33 43 -163 79 -289 36 -126 66 -231 66 -233 0
-1 34 -3 75 -3 l75 0 0 380 0 380 -70 0 -70 0 0 -117 c0 -100 14 -285 35 -463
3 -25 -8 7 -23 70 -16 63 -53 204 -83 312 l-54 198 -77 0 -78 0 0 -380z"/>
<path d="M3690 910 l0 -380 165 0 165 0 0 60 0 60 -90 0 -90 0 0 110 0 110 90
0 90 0 0 60 0 60 -90 0 -90 0 0 90 0 90 90 0 90 0 0 60 0 60 -165 0 -165 0 0
-380z"/>
<path d="M4130 910 l0 -380 75 0 75 0 0 182 c0 100 2 179 5 176 4 -3 34 -84
68 -179 l62 -174 78 -3 c42 -2 77 1 77 5 0 4 -30 83 -66 176 -36 93 -64 170
-62 171 2 1 16 8 32 16 47 24 78 80 83 153 9 108 -27 179 -112 218 -33 15 -65
19 -177 19 l-138 0 0 -380z m236 248 c27 -13 44 -49 44 -94 0 -49 -45 -94 -94
-94 l-36 0 0 106 0 106 33 -7 c17 -3 42 -11 53 -17z"/>
<path d="M4612 1228 l3 -63 58 -3 57 -3 0 -314 0 -315 75 0 75 0 0 315 0 315
60 0 60 0 0 65 0 65 -195 0 -196 0 3 -62z"/>
</g>
</svg>
